<?xml version="1.0" standalone="no"?>
<!DOCTYPE svg PUBLIC "-//W3C//DTD SVG 20010904//EN"
 "http://www.w3.org/TR/2001/REC-SVG-20010904/DTD/svg10.dtd">
<svg version="1.0" xmlns="http://www.w3.org/2000/svg"
 width="500.000000pt" height="500.000000pt" viewBox="0 0 500.000000 500.000000"
 preserveAspectRatio="xMidYMid meet">
<metadata>
Created by potrace 1.14, written by Peter Selinger 2001-2017
</metadata>
<g transform="translate(0.000000,500.000000) scale(0.100000,-0.100000)"
fill="#000000" stroke="none">
<path d="M2170 4985 c-222 -36 -457 -100 -580 -159 -30 -15 -46 -23 -35 -20
11 4 83 29 161 55 129 44 276 80 379 92 22 3 78 11 125 17 93 13 377 16 480 5
100 -10 306 -44 332 -54 29 -12 81 -25 91 -23 4 1 7 -3 7 -8 0 -6 -12 -8 -27
-6 -246 43 -266 46 -423 55 -120 6 -528 6 -562 -1 -7 -2 -16 -7 -19 -11 -3 -4
-55 -19 -115 -33 -398 -93 -748 -256 -1034 -483 -102 -80 -226 -195 -273 -250
-15 -19 -30 -31 -33 -29 -5 6 218 234 296 302 44 39 46 42 10 15 -203 -152
-420 -396 -566 -636 -165 -271 -278 -574 -329 -883 -42 -254 -41 -561 1 -800
8 -47 17 -94 18 -105 14 -86 99 -361 131 -422 8 -15 15 -32 15 -36 0 -15 145
-299 190 -372 268 -440 622 -762 1080 -981 145 -70 312 -128 460 -159 41 -9
84 -18 95 -21 141 -30 209 -34 517 -34 253 1 335 4 383 16 143 37 172 43 200
49 61 12 165 47 165 56 0 4 7 6 15 3 8 -4 15 -2 15 3 0 5 20 17 45 28 25 11
45 26 45 33 0 6 67 45 149 86 198 98 251 128 346 194 200 138 361 283 518 470
107 126 111 121 10 -13 -51 -67 -127 -151 -227 -249 l-121 -119 92 77 c195
162 402 423 537 678 110 206 186 420 238 663 22 104 23 130 23 495 0 417 1
410 -66 657 -112 419 -396 899 -705 1193 -211 200 -510 400 -739 492 -191 77
-356 127 -525 159 -99 19 -157 22 -410 25 -216 2 -318 -1 -380 -11z m55 -4921
c93 -10 198 -15 342 -17 101 -1 163 -6 163 -12 0 -5 4 -4 9 4 5 8 18 12 30 8
11 -2 28 1 37 7 11 9 30 10 56 6 21 -4 41 -3 44 1 3 5 10 9 15 9 6 0 7 -6 3
-12 -5 -9 -2 -9 9 1 13 10 17 10 17 1 0 -9 4 -9 17 1 9 8 14 9 10 2 -4 -6 -1
-13 5 -16 7 -2 -18 -7 -57 -11 -38 -4 -97 -11 -130 -16 -61 -9 -447 -6 -475 4
-8 3 -35 7 -60 10 -80 7 -185 28 -195 38 -9 8 22 7 160 -8z"/>
<path d="M4069 533 l-24 -28 28 24 c15 14 27 26 27 28 0 8 -8 1 -31 -24z"/>
</g>
</svg>
